<mxfile host="Electron" agent="Mozilla/5.0 (X11; Linux x86_64) AppleWebKit/537.36 (KHTML, like Gecko) draw.io/24.7.17 Chrome/128.0.6613.36 Electron/32.0.1 Safari/537.36" version="24.7.17">
  <diagram id="C5RBs43oDa-KdzZeNtuy" name="Page-1">
    <mxGraphModel dx="2383" dy="1447" grid="1" gridSize="10" guides="1" tooltips="1" connect="1" arrows="1" fold="1" page="1" pageScale="1" pageWidth="827" pageHeight="1169" math="0" shadow="0">
      <root>
        <mxCell id="WIyWlLk6GJQsqaUBKTNV-0" />
        <mxCell id="WIyWlLk6GJQsqaUBKTNV-1" parent="WIyWlLk6GJQsqaUBKTNV-0" />
        <mxCell id="WIyWlLk6GJQsqaUBKTNV-2" value="" style="rounded=0;html=1;jettySize=auto;orthogonalLoop=1;fontSize=11;endArrow=block;endFill=0;endSize=8;strokeWidth=1;shadow=0;labelBackgroundColor=none;edgeStyle=orthogonalEdgeStyle;" parent="WIyWlLk6GJQsqaUBKTNV-1" target="WIyWlLk6GJQsqaUBKTNV-6" edge="1">
          <mxGeometry relative="1" as="geometry">
            <mxPoint x="130" y="230" as="sourcePoint" />
          </mxGeometry>
        </mxCell>
        <mxCell id="WIyWlLk6GJQsqaUBKTNV-4" value="Yes" style="rounded=0;html=1;jettySize=auto;orthogonalLoop=1;fontSize=11;endArrow=block;endFill=0;endSize=8;strokeWidth=1;shadow=0;labelBackgroundColor=none;edgeStyle=orthogonalEdgeStyle;" parent="WIyWlLk6GJQsqaUBKTNV-1" target="WIyWlLk6GJQsqaUBKTNV-10" edge="1">
          <mxGeometry y="20" relative="1" as="geometry">
            <mxPoint as="offset" />
            <mxPoint x="130" y="340" as="sourcePoint" />
          </mxGeometry>
        </mxCell>
        <mxCell id="WIyWlLk6GJQsqaUBKTNV-5" value="No" style="edgeStyle=orthogonalEdgeStyle;rounded=0;html=1;jettySize=auto;orthogonalLoop=1;fontSize=11;endArrow=block;endFill=0;endSize=8;strokeWidth=1;shadow=0;labelBackgroundColor=none;" parent="WIyWlLk6GJQsqaUBKTNV-1" source="WIyWlLk6GJQsqaUBKTNV-6" edge="1">
          <mxGeometry y="10" relative="1" as="geometry">
            <mxPoint as="offset" />
            <mxPoint x="380" y="230" as="targetPoint" />
          </mxGeometry>
        </mxCell>
        <mxCell id="WIyWlLk6GJQsqaUBKTNV-8" value="No" style="rounded=0;html=1;jettySize=auto;orthogonalLoop=1;fontSize=11;endArrow=block;endFill=0;endSize=8;strokeWidth=1;shadow=0;labelBackgroundColor=none;edgeStyle=orthogonalEdgeStyle;" parent="WIyWlLk6GJQsqaUBKTNV-1" source="WIyWlLk6GJQsqaUBKTNV-10" edge="1">
          <mxGeometry x="0.3333" y="20" relative="1" as="geometry">
            <mxPoint as="offset" />
            <mxPoint x="380" y="530" as="targetPoint" />
          </mxGeometry>
        </mxCell>
        <mxCell id="WIyWlLk6GJQsqaUBKTNV-9" value="Yes" style="edgeStyle=orthogonalEdgeStyle;rounded=0;html=1;jettySize=auto;orthogonalLoop=1;fontSize=11;endArrow=block;endFill=0;endSize=8;strokeWidth=1;shadow=0;labelBackgroundColor=none;" parent="WIyWlLk6GJQsqaUBKTNV-1" source="WIyWlLk6GJQsqaUBKTNV-10" edge="1">
          <mxGeometry y="10" relative="1" as="geometry">
            <mxPoint as="offset" />
            <mxPoint x="380" y="350" as="targetPoint" />
          </mxGeometry>
        </mxCell>
        <mxCell id="-u9BxznaIXvUn5xGjTWD-64" style="edgeStyle=orthogonalEdgeStyle;rounded=0;orthogonalLoop=1;jettySize=auto;html=1;entryX=0.5;entryY=1;entryDx=0;entryDy=0;exitX=0.5;exitY=0;exitDx=0;exitDy=0;targetPerimeterSpacing=7;jumpStyle=arc;jumpSize=10;strokeWidth=3;" edge="1" parent="WIyWlLk6GJQsqaUBKTNV-1" source="-u9BxznaIXvUn5xGjTWD-65" target="-u9BxznaIXvUn5xGjTWD-67">
          <mxGeometry relative="1" as="geometry" />
        </mxCell>
        <mxCell id="-u9BxznaIXvUn5xGjTWD-65" value="&lt;font style=&quot;font-size: 17px;&quot;&gt;запуск скріпта на сервері&lt;/font&gt;" style="ellipse;whiteSpace=wrap;html=1;" vertex="1" parent="WIyWlLk6GJQsqaUBKTNV-1">
          <mxGeometry x="40" y="425" width="160" height="120" as="geometry" />
        </mxCell>
        <mxCell id="-u9BxznaIXvUn5xGjTWD-66" style="edgeStyle=orthogonalEdgeStyle;rounded=0;orthogonalLoop=1;jettySize=auto;html=1;entryX=0;entryY=0.5;entryDx=0;entryDy=0;exitX=1;exitY=0.5;exitDx=0;exitDy=0;strokeWidth=3;" edge="1" parent="WIyWlLk6GJQsqaUBKTNV-1" source="-u9BxznaIXvUn5xGjTWD-67" target="-u9BxznaIXvUn5xGjTWD-72">
          <mxGeometry relative="1" as="geometry">
            <Array as="points">
              <mxPoint x="295" y="259" />
              <mxPoint x="295" y="485" />
            </Array>
          </mxGeometry>
        </mxCell>
        <mxCell id="-u9BxznaIXvUn5xGjTWD-67" value="&lt;font style=&quot;font-size: 17px;&quot;&gt;Завантаження вибраних протоколів на сервер&amp;nbsp;&lt;/font&gt;" style="whiteSpace=wrap;html=1;" vertex="1" parent="WIyWlLk6GJQsqaUBKTNV-1">
          <mxGeometry x="35" y="210" width="170" height="97.5" as="geometry" />
        </mxCell>
        <mxCell id="-u9BxznaIXvUn5xGjTWD-68" style="edgeStyle=orthogonalEdgeStyle;rounded=0;orthogonalLoop=1;jettySize=auto;html=1;exitX=0.5;exitY=1;exitDx=0;exitDy=0;entryX=0.5;entryY=0;entryDx=0;entryDy=0;strokeWidth=3;" edge="1" parent="WIyWlLk6GJQsqaUBKTNV-1" source="-u9BxznaIXvUn5xGjTWD-65" target="-u9BxznaIXvUn5xGjTWD-70">
          <mxGeometry relative="1" as="geometry">
            <mxPoint x="110" y="823" as="sourcePoint" />
            <mxPoint x="120" y="630" as="targetPoint" />
          </mxGeometry>
        </mxCell>
        <mxCell id="-u9BxznaIXvUn5xGjTWD-69" style="edgeStyle=orthogonalEdgeStyle;rounded=0;orthogonalLoop=1;jettySize=auto;html=1;exitX=1;exitY=0.5;exitDx=0;exitDy=0;entryX=0;entryY=0.5;entryDx=0;entryDy=0;strokeWidth=3;" edge="1" parent="WIyWlLk6GJQsqaUBKTNV-1" source="-u9BxznaIXvUn5xGjTWD-70" target="-u9BxznaIXvUn5xGjTWD-72">
          <mxGeometry relative="1" as="geometry">
            <Array as="points">
              <mxPoint x="205" y="710" />
              <mxPoint x="295" y="710" />
              <mxPoint x="295" y="485" />
            </Array>
          </mxGeometry>
        </mxCell>
        <mxCell id="-u9BxznaIXvUn5xGjTWD-70" value="&lt;font style=&quot;font-size: 17px;&quot;&gt;завантаження http сервера&lt;/font&gt;" style="whiteSpace=wrap;html=1;" vertex="1" parent="WIyWlLk6GJQsqaUBKTNV-1">
          <mxGeometry x="35" y="660" width="170" height="97.5" as="geometry" />
        </mxCell>
        <mxCell id="-u9BxznaIXvUn5xGjTWD-71" style="edgeStyle=orthogonalEdgeStyle;rounded=0;orthogonalLoop=1;jettySize=auto;html=1;strokeWidth=3;" edge="1" parent="WIyWlLk6GJQsqaUBKTNV-1" source="-u9BxznaIXvUn5xGjTWD-72" target="-u9BxznaIXvUn5xGjTWD-78">
          <mxGeometry relative="1" as="geometry">
            <mxPoint x="760.0000000000002" y="610" as="targetPoint" />
            <Array as="points">
              <mxPoint x="725" y="485" />
            </Array>
          </mxGeometry>
        </mxCell>
        <mxCell id="-u9BxznaIXvUn5xGjTWD-72" value="&lt;font style=&quot;font-size: 17px;&quot;&gt;Ввести &lt;b style=&quot;&quot;&gt;дані сервера&lt;/b&gt; та додати його в ProtoFlex&lt;/font&gt;" style="shape=parallelogram;perimeter=parallelogramPerimeter;whiteSpace=wrap;html=1;fixedSize=1;" vertex="1" parent="WIyWlLk6GJQsqaUBKTNV-1">
          <mxGeometry x="470" y="435" width="230" height="100" as="geometry" />
        </mxCell>
        <mxCell id="-u9BxznaIXvUn5xGjTWD-73" style="edgeStyle=orthogonalEdgeStyle;rounded=0;orthogonalLoop=1;jettySize=auto;html=1;exitX=0.5;exitY=1;exitDx=0;exitDy=0;entryX=0;entryY=0.5;entryDx=0;entryDy=0;strokeWidth=3;" edge="1" parent="WIyWlLk6GJQsqaUBKTNV-1" source="-u9BxznaIXvUn5xGjTWD-74" target="-u9BxznaIXvUn5xGjTWD-72">
          <mxGeometry relative="1" as="geometry">
            <Array as="points">
              <mxPoint x="725" y="400" />
              <mxPoint x="380" y="400" />
              <mxPoint x="380" y="485" />
            </Array>
          </mxGeometry>
        </mxCell>
        <mxCell id="-u9BxznaIXvUn5xGjTWD-74" value="&lt;font style=&quot;font-size: 17px;&quot;&gt;&lt;b&gt;ДАНІ СЕРВЕРА&lt;/b&gt;&lt;/font&gt;" style="swimlane;fontStyle=0;childLayout=stackLayout;horizontal=1;startSize=30;horizontalStack=0;resizeParent=1;resizeParentMax=0;resizeLast=0;collapsible=1;marginBottom=0;whiteSpace=wrap;html=1;gradientColor=none;fillColor=default;" vertex="1" parent="WIyWlLk6GJQsqaUBKTNV-1">
          <mxGeometry x="635" y="210" width="180" height="150" as="geometry" />
        </mxCell>
        <mxCell id="-u9BxznaIXvUn5xGjTWD-75" value="&lt;font style=&quot;font-size: 17px;&quot;&gt;Публичний IP сервера&lt;/font&gt;" style="text;strokeColor=none;fillColor=default;align=left;verticalAlign=middle;spacingLeft=4;spacingRight=4;overflow=hidden;points=[[0,0.5],[1,0.5]];portConstraint=eastwest;rotatable=0;whiteSpace=wrap;html=1;" vertex="1" parent="-u9BxznaIXvUn5xGjTWD-74">
          <mxGeometry y="30" width="180" height="40" as="geometry" />
        </mxCell>
        <mxCell id="-u9BxznaIXvUn5xGjTWD-76" value="&lt;font style=&quot;font-size: 17px;&quot;&gt;Порт http сервера&amp;nbsp;&lt;/font&gt;" style="text;strokeColor=none;fillColor=default;align=left;verticalAlign=middle;spacingLeft=4;spacingRight=4;overflow=hidden;points=[[0,0.5],[1,0.5]];portConstraint=eastwest;rotatable=0;whiteSpace=wrap;html=1;" vertex="1" parent="-u9BxznaIXvUn5xGjTWD-74">
          <mxGeometry y="70" width="180" height="40" as="geometry" />
        </mxCell>
        <mxCell id="-u9BxznaIXvUn5xGjTWD-77" value="&lt;font style=&quot;font-size: 17px;&quot;&gt;Дані для протоколів&lt;/font&gt;" style="text;strokeColor=none;fillColor=default;align=left;verticalAlign=middle;spacingLeft=4;spacingRight=4;overflow=hidden;points=[[0,0.5],[1,0.5]];portConstraint=eastwest;rotatable=0;whiteSpace=wrap;html=1;" vertex="1" parent="-u9BxznaIXvUn5xGjTWD-74">
          <mxGeometry y="110" width="180" height="40" as="geometry" />
        </mxCell>
        <mxCell id="-u9BxznaIXvUn5xGjTWD-78" value="&lt;font style=&quot;font-size: 18px;&quot;&gt;SQLITE&lt;/font&gt;" style="shape=hexagon;perimeter=hexagonPerimeter2;whiteSpace=wrap;html=1;fixedSize=1;" vertex="1" parent="WIyWlLk6GJQsqaUBKTNV-1">
          <mxGeometry x="635" y="660" width="180" height="97.88" as="geometry" />
        </mxCell>
      </root>
    </mxGraphModel>
  </diagram>
</mxfile>
